<svg xmlns="http://www.w3.org/2000/svg" viewBox="0 0 122.5 88.58"><defs><style>.cls-1{fill:#fff;}</style></defs><title>logo</title><g id="Camada_2" data-name="Camada 2"><g id="Camada_1-2" data-name="Camada 1"><path class="cls-1" d="M12,59.64V51.23H4.64v8.41H1.06V40.42H4.64V48H12V40.42H15.6V59.64Z"/><path class="cls-1" d="M30.21,52.2a10,10,0,0,1-.52,3.35A6.77,6.77,0,0,1,28.26,58a6,6,0,0,1-2.13,1.47,7,7,0,0,1-2.65.5,7.43,7.43,0,0,1-2.68-.46,5.32,5.32,0,0,1-2.09-1.4,6.36,6.36,0,0,1-1.35-2.39,11.49,11.49,0,0,1-.47-3.48,10,10,0,0,1,.5-3.27,7.2,7.2,0,0,1,1.38-2.42A5.77,5.77,0,0,1,20.87,45a6.8,6.8,0,0,1,2.69-.53,7.7,7.7,0,0,1,2.64.43,5.34,5.34,0,0,1,2.1,1.35,6.41,6.41,0,0,1,1.41,2.4A11.17,11.17,0,0,1,30.21,52.2Zm-3.5,0a6.52,6.52,0,0,0-.83-3.82,2.73,2.73,0,0,0-2.35-1.12,3.11,3.11,0,0,0-1.28.26,2.51,2.51,0,0,0-1,.83,4,4,0,0,0-.63,1.52,11,11,0,0,0-.22,2.33A7.12,7.12,0,0,0,21.17,56a2.61,2.61,0,0,0,2.31,1.1,3.49,3.49,0,0,0,1.37-.25,2.46,2.46,0,0,0,1-.83,4,4,0,0,0,.63-1.53A10.94,10.94,0,0,0,26.71,52.2Z"/><path class="cls-1" d="M41.14,55.31a4.29,4.29,0,0,1-.48,2.08,4.24,4.24,0,0,1-1.28,1.44,5.48,5.48,0,0,1-1.83.83,8.64,8.64,0,0,1-2.16.27A11.4,11.4,0,0,1,33,59.66a8.52,8.52,0,0,1-2.14-.76q.17-.8.36-1.5c.12-.46.26-.94.41-1.44a7.77,7.77,0,0,0,2.09.75A11.05,11.05,0,0,0,36,57a2,2,0,0,0,1.39-.4,1.43,1.43,0,0,0,.41-1.11,1.11,1.11,0,0,0-.5-1A5.27,5.27,0,0,0,36,53.82c-.5-.19-1-.38-1.63-.57a7,7,0,0,1-1.63-.77,4.06,4.06,0,0,1-1.26-1.25,3.64,3.64,0,0,1-.5-2,4.25,4.25,0,0,1,1.8-3.58,6.25,6.25,0,0,1,1.92-.88,8.61,8.61,0,0,1,2.29-.3,17.23,17.23,0,0,1,1.75.11,12.3,12.3,0,0,1,1.86.35,11.22,11.22,0,0,1-.16,1.42c-.08.51-.18,1-.3,1.51a6.68,6.68,0,0,0-.87-.24c-.34-.07-.68-.12-1-.17s-.71-.09-1.06-.11-.69-.05-1-.05c-1.2,0-1.8.53-1.8,1.57a1,1,0,0,0,.5.91,5.51,5.51,0,0,0,1.24.62l1.63.57a6.3,6.3,0,0,1,1.64.82,4.63,4.63,0,0,1,1.24,1.36A4.08,4.08,0,0,1,41.14,55.31Z"/><path class="cls-1" d="M55.26,51.77a12.71,12.71,0,0,1-.46,3.65A6.65,6.65,0,0,1,53.48,58a5.17,5.17,0,0,1-2.07,1.48,7.15,7.15,0,0,1-2.71.49,8.07,8.07,0,0,1-1.36-.12A10,10,0,0,1,46,59.5v6H42.72V44.87c.46-.06,1-.11,1.59-.14s1.16-.06,1.67-.06V46h.17A5.4,5.4,0,0,1,48,44.81a5.67,5.67,0,0,1,2-.34,4.64,4.64,0,0,1,3.88,1.78Q55.27,48,55.26,51.77Zm-3.49.31a12.12,12.12,0,0,0-.2-2.41A4,4,0,0,0,51,48.23a1.86,1.86,0,0,0-.9-.69,3.42,3.42,0,0,0-1.19-.19,6.24,6.24,0,0,0-1.54.19,4.07,4.07,0,0,0-1.38.58v8.41a5.1,5.1,0,0,0,2.44.6A2.85,2.85,0,0,0,51,56,7.48,7.48,0,0,0,51.77,52.08Z"/><path class="cls-1" d="M60.5,40.79A2.07,2.07,0,0,1,60,42.13a1.75,1.75,0,0,1-1.42.57,1.65,1.65,0,0,1-1.38-.58,2.14,2.14,0,0,1-.45-1.33,2.26,2.26,0,0,1,.45-1.36,1.68,1.68,0,0,1,1.41-.61,1.64,1.64,0,0,1,1.4.6A2.18,2.18,0,0,1,60.5,40.79ZM57,59.64V44.75h3.26V59.64Z"/><path class="cls-1" d="M71.84,59.27a4.14,4.14,0,0,1-.69.27,7.62,7.62,0,0,1-.82.22,7.93,7.93,0,0,1-.81.12,6.71,6.71,0,0,1-.72,0,4.75,4.75,0,0,1-3.65-1.24A5.64,5.64,0,0,1,64,54.82V47.61H62.27V44.75H64V41.62q.72-.18,1.62-.33c.6-.1,1.15-.18,1.64-.22v3.68h3.84c0,.46,0,.93,0,1.4s-.08,1-.16,1.46H67.28v7.44a1.87,1.87,0,0,0,.46,1.51,2.52,2.52,0,0,0,1.49.34,6.1,6.1,0,0,0,1.16-.12,4.08,4.08,0,0,0,1-.33,11.8,11.8,0,0,1,.28,1.37C71.74,58.31,71.8,58.8,71.84,59.27Z"/><path class="cls-1" d="M86,57.73a1.92,1.92,0,0,1-.72,1.73,3.06,3.06,0,0,1-1.71.47,4.06,4.06,0,0,1-1.66-.32,2.11,2.11,0,0,1-1.09-1.22h-.15a7,7,0,0,1-1.94,1.17,6.09,6.09,0,0,1-2.12.37,5.89,5.89,0,0,1-1.78-.25,3.7,3.7,0,0,1-1.38-.75,3.38,3.38,0,0,1-.92-1.31,4.9,4.9,0,0,1-.33-1.88,3.84,3.84,0,0,1,1.42-3.41,7.69,7.69,0,0,1,4.08-1.1l2.63-.11V48A4.17,4.17,0,0,0,79,47.52a9.25,9.25,0,0,0-1.6-.14,10.61,10.61,0,0,0-1.85.17A7.19,7.19,0,0,0,74,48c-.09-.4-.18-.87-.27-1.4s-.15-1.06-.18-1.57a14.31,14.31,0,0,1,4.12-.57,14,14,0,0,1,3.18.38,6.62,6.62,0,0,1,2.63,1.22v9.64a1.11,1.11,0,0,0,.19.75.91.91,0,0,0,.7.22H86Zm-5.67-4.42-2.66.11a2.76,2.76,0,0,0-1.69.49,2.05,2.05,0,0,0-.49,1.6,1.89,1.89,0,0,0,.45,1.42,1.94,1.94,0,0,0,1.41.43,6.1,6.1,0,0,0,1.58-.23,4.22,4.22,0,0,0,1.4-.65Z"/><path class="cls-1" d="M87,59.64v-21c.46-.06,1-.11,1.59-.16s1.16-.07,1.68-.07V59.64Z"/><path class="cls-1" d="M13.77,83a8.1,8.1,0,0,1-2.55,1,13.65,13.65,0,0,1-2.74.3c-2.79,0-4.9-.83-6.33-2.51S0,77.57,0,74.3a13.94,13.94,0,0,1,.63-4.44,8.45,8.45,0,0,1,1.75-3.08A6.72,6.72,0,0,1,5,65a9.28,9.28,0,0,1,3.29-.57,13.29,13.29,0,0,1,1.38.07c.47,0,.94.11,1.4.19a11.21,11.21,0,0,1,1.29.28,4.52,4.52,0,0,1,1,.4c0,.46-.11,1-.21,1.54s-.22,1.11-.33,1.63a8.49,8.49,0,0,0-2.11-.73,10.73,10.73,0,0,0-2.24-.24,5.43,5.43,0,0,0-1.89.32A3.45,3.45,0,0,0,5.11,69a5.3,5.3,0,0,0-.94,2.07,13.4,13.4,0,0,0-.33,3.24c0,2.45.38,4.19,1.16,5.23a4.14,4.14,0,0,0,3.56,1.55A8.57,8.57,0,0,0,11,80.71a8.58,8.58,0,0,0,2.16-.94c.13.5.25,1,.36,1.54A14.76,14.76,0,0,1,13.77,83Z"/><path class="cls-1" d="M27.46,76.49a9.74,9.74,0,0,1-.52,3.35,6.68,6.68,0,0,1-1.43,2.41,6,6,0,0,1-2.13,1.47,6.8,6.8,0,0,1-2.65.5,7.69,7.69,0,0,1-2.68-.45A5.43,5.43,0,0,1,16,82.37,6.34,6.34,0,0,1,14.62,80a11.16,11.16,0,0,1-.48-3.48,10,10,0,0,1,.5-3.26A7.35,7.35,0,0,1,16,70.8a5.88,5.88,0,0,1,2.1-1.51,6.8,6.8,0,0,1,2.69-.53,7.94,7.94,0,0,1,2.64.43,5.48,5.48,0,0,1,2.1,1.36A6.17,6.17,0,0,1,27,72.94,11.21,11.21,0,0,1,27.46,76.49Zm-3.5,0a6.55,6.55,0,0,0-.83-3.82,2.74,2.74,0,0,0-2.34-1.11,3,3,0,0,0-1.29.26,2.48,2.48,0,0,0-1,.82,4,4,0,0,0-.63,1.53,11,11,0,0,0-.21,2.32,7.16,7.16,0,0,0,.75,3.84,2.63,2.63,0,0,0,2.31,1.1,3.49,3.49,0,0,0,1.37-.26,2.46,2.46,0,0,0,1-.83,4,4,0,0,0,.63-1.52A11.1,11.1,0,0,0,24,76.49Z"/><path class="cls-1" d="M37.11,68.93A16.09,16.09,0,0,1,37,70.62c-.06.57-.13,1.13-.23,1.68a5.87,5.87,0,0,0-1.34-.14,5.45,5.45,0,0,0-1.51.21,4.54,4.54,0,0,0-1.5.81V83.94H29.18V69.16c.45,0,1-.1,1.58-.14S31.92,69,32.44,69v1.91h.17a9.78,9.78,0,0,1,1-1.15,4.27,4.27,0,0,1,.87-.63,2.74,2.74,0,0,1,.79-.27,4.56,4.56,0,0,1,.72-.06,3.74,3.74,0,0,1,.53,0A4.61,4.61,0,0,1,37.11,68.93Z"/><path class="cls-1" d="M51.45,82a1.92,1.92,0,0,1-.71,1.72,3,3,0,0,1-1.72.47,4.06,4.06,0,0,1-1.66-.31,2.13,2.13,0,0,1-1.09-1.23h-.14a7.21,7.21,0,0,1-2,1.17,5.87,5.87,0,0,1-2.12.37A6.23,6.23,0,0,1,40.28,84a3.58,3.58,0,0,1-1.38-.76A3.38,3.38,0,0,1,38,81.91,4.9,4.9,0,0,1,37.65,80a3.85,3.85,0,0,1,1.42-3.41,7.69,7.69,0,0,1,4.08-1.1l2.63-.11V72.27a4,4,0,0,0-1.31-.45,8.53,8.53,0,0,0-1.61-.15,10.61,10.61,0,0,0-1.85.17,7.48,7.48,0,0,0-1.58.46c-.1-.4-.19-.86-.28-1.4S39,69.85,39,69.33a14.24,14.24,0,0,1,2-.42,14.39,14.39,0,0,1,2.12-.15,13.43,13.43,0,0,1,3.18.39,6.61,6.61,0,0,1,2.63,1.21V80a1.16,1.16,0,0,0,.19.76.91.91,0,0,0,.7.21h1.66Zm-5.67-4.42-2.66.11a2.83,2.83,0,0,0-1.69.48,2.07,2.07,0,0,0-.49,1.6,1.91,1.91,0,0,0,.45,1.43,2,2,0,0,0,1.41.43,6.1,6.1,0,0,0,1.58-.23,4.23,4.23,0,0,0,1.4-.66Z"/><path class="cls-1" d="M90.19,76.49a10,10,0,0,1-.51,3.35,6.85,6.85,0,0,1-1.44,2.41,6,6,0,0,1-2.13,1.47,6.76,6.76,0,0,1-2.65.5,7.73,7.73,0,0,1-2.68-.45,5.51,5.51,0,0,1-2.09-1.4A6.34,6.34,0,0,1,77.35,80a11.18,11.18,0,0,1-.47-3.48,9.75,9.75,0,0,1,.5-3.26,7.16,7.16,0,0,1,1.37-2.43,5.92,5.92,0,0,1,2.11-1.51,6.76,6.76,0,0,1,2.69-.53,7.93,7.93,0,0,1,2.63.43,5.59,5.59,0,0,1,2.11,1.36,6.28,6.28,0,0,1,1.4,2.39A11.21,11.21,0,0,1,90.19,76.49Zm-3.49,0a6.62,6.62,0,0,0-.83-3.82,2.77,2.77,0,0,0-2.35-1.11,3,3,0,0,0-1.29.26,2.48,2.48,0,0,0-1,.82,4.17,4.17,0,0,0-.63,1.53,11,11,0,0,0-.21,2.32,7,7,0,0,0,.76,3.84,2.6,2.6,0,0,0,2.3,1.1,3.54,3.54,0,0,0,1.38-.26,2.43,2.43,0,0,0,1-.83,4,4,0,0,0,.63-1.52A10.41,10.41,0,0,0,86.7,76.49Z"/><path class="cls-1" d="M62.25,83.39a3.76,3.76,0,0,1-.83.36,8.3,8.3,0,0,1-1,.26,9,9,0,0,1-1,.15,8.65,8.65,0,0,1-1,.06,6.81,6.81,0,0,1-5.15-1.84q-1.78-1.83-1.78-5.63A11.06,11.06,0,0,1,52,73.13a6.86,6.86,0,0,1,1.43-2.48,5.44,5.44,0,0,1,2.08-1.43A6.88,6.88,0,0,1,58,68.76a19.21,19.21,0,0,1,2.09.13,8.48,8.48,0,0,1,1.89.44q-.09.69-.27,1.53c-.13.56-.27,1.09-.42,1.58A6.35,6.35,0,0,0,59.78,72a10.44,10.44,0,0,0-1.54-.13,4,4,0,0,0-1.41.23,2.18,2.18,0,0,0-1,.76,3.67,3.67,0,0,0-.61,1.38A8.43,8.43,0,0,0,55,76.35a11.61,11.61,0,0,0,.2,2.35,3.59,3.59,0,0,0,.63,1.46,2.32,2.32,0,0,0,1.1.74,5.37,5.37,0,0,0,1.59.21,6.65,6.65,0,0,0,1.62-.2,5.35,5.35,0,0,0,1.45-.54c.15.48.28,1,.4,1.49S62.19,82.88,62.25,83.39Zm-2.43,3.17a1.78,1.78,0,0,1-.67,1.5,3.47,3.47,0,0,1-2.09.52l-.69,0-.72-.07c0-.22,0-.44-.07-.65s0-.41,0-.62a6.32,6.32,0,0,0,.7.09l.61,0a1.93,1.93,0,0,0,.9-.16.64.64,0,0,0,.29-.61.69.69,0,0,0-.25-.61,1.41,1.41,0,0,0-.83-.19h-.39l-.51,0c0-.15.06-.32.1-.51a2.35,2.35,0,0,1,.16-.51h1.19a2.69,2.69,0,0,1,1.73.47A1.66,1.66,0,0,1,59.82,86.56Z"/><path class="cls-1" d="M76.85,82a1.9,1.9,0,0,1-.72,1.72,3,3,0,0,1-1.72.47,4.13,4.13,0,0,1-1.66-.31,2.12,2.12,0,0,1-1.08-1.23h-.15a7.32,7.32,0,0,1-1.94,1.17,5.87,5.87,0,0,1-2.12.37A6.23,6.23,0,0,1,65.68,84a3.62,3.62,0,0,1-1.39-.76,3.46,3.46,0,0,1-.91-1.31A4.9,4.9,0,0,1,63.05,80a3.85,3.85,0,0,1,1.42-3.41,7.69,7.69,0,0,1,4.08-1.1l2.63-.11V72.27a3.94,3.94,0,0,0-1.32-.45,8.35,8.35,0,0,0-1.6-.15,10.61,10.61,0,0,0-1.85.17,7.77,7.77,0,0,0-1.59.46c-.09-.4-.18-.86-.27-1.4s-.15-1.05-.19-1.57a15.45,15.45,0,0,1,4.13-.57,13.43,13.43,0,0,1,3.18.39,6.67,6.67,0,0,1,2.63,1.21V80a1.16,1.16,0,0,0,.19.76.9.9,0,0,0,.7.21h1.66ZM65.69,67.28a8.44,8.44,0,0,1,.54-1.39,2.81,2.81,0,0,1,.57-.78,1.27,1.27,0,0,1,.65-.31,2.92,2.92,0,0,1,.73,0,2.18,2.18,0,0,1,1,.35l1,.68a1.44,1.44,0,0,0,.64.26.52.52,0,0,0,.46-.18,4.27,4.27,0,0,0,.38-1,5.72,5.72,0,0,1,1.67.49,10.1,10.1,0,0,1-.55,1.38,2.73,2.73,0,0,1-.57.79,1.45,1.45,0,0,1-.62.33,2.82,2.82,0,0,1-.72,0,2.53,2.53,0,0,1-1.08-.37l-1-.64c-.12-.07-.23-.14-.34-.19a1.11,1.11,0,0,0-.32-.09,1.19,1.19,0,0,0-.28,0,.39.39,0,0,0-.2.15,1.12,1.12,0,0,0-.19.35,4.27,4.27,0,0,0-.18.61,4.25,4.25,0,0,1-.81-.16A5.13,5.13,0,0,1,65.69,67.28Zm5.49,10.33-2.66.11a2.83,2.83,0,0,0-1.69.48,2.07,2.07,0,0,0-.49,1.6,2,2,0,0,0,.44,1.43,2,2,0,0,0,1.42.43,6.1,6.1,0,0,0,1.58-.23,4.23,4.23,0,0,0,1.4-.66Z"/><path class="cls-1" d="M100,59.64v-.85h-.12a3.48,3.48,0,0,1-1.24.81,3.91,3.91,0,0,1-1.37.24,3.16,3.16,0,0,1-2.64-1.22,6.09,6.09,0,0,1-.94-3.75,8.63,8.63,0,0,1,.32-2.54A4.54,4.54,0,0,1,95,50.61a3.46,3.46,0,0,1,1.42-1,5,5,0,0,1,1.81-.31,5.3,5.3,0,0,1,1,.08,7.54,7.54,0,0,1,.9.21V45.35l1.09-.1c.42,0,.79,0,1.13,0V59.64Zm0-8a3.18,3.18,0,0,0-.78-.3,4,4,0,0,0-.88-.11,2.81,2.81,0,0,0-1,.17,1.64,1.64,0,0,0-.71.57A2.8,2.8,0,0,0,96.24,53a8.31,8.31,0,0,0-.14,1.63,8.61,8.61,0,0,0,.12,1.58,2.86,2.86,0,0,0,.35,1,1.31,1.31,0,0,0,.61.51,2.26,2.26,0,0,0,.87.15,3.75,3.75,0,0,0,2-.51Z"/><path class="cls-1" d="M112.9,54.58a6.66,6.66,0,0,1-.35,2.28,4.67,4.67,0,0,1-1,1.64,4.24,4.24,0,0,1-1.45,1,4.9,4.9,0,0,1-1.81.34,5.3,5.3,0,0,1-1.82-.31,3.65,3.65,0,0,1-1.42-1,4.29,4.29,0,0,1-.92-1.63,7.83,7.83,0,0,1-.32-2.36,6.74,6.74,0,0,1,.34-2.23,4.91,4.91,0,0,1,.94-1.65,4,4,0,0,1,1.43-1,4.77,4.77,0,0,1,1.83-.35,5.13,5.13,0,0,1,1.79.29,3.67,3.67,0,0,1,1.44.92,4.26,4.26,0,0,1,1,1.63A7.43,7.43,0,0,1,112.9,54.58Zm-2.37,0A4.5,4.5,0,0,0,110,52a1.89,1.89,0,0,0-1.6-.75,2.18,2.18,0,0,0-.87.17,1.68,1.68,0,0,0-.68.57,2.73,2.73,0,0,0-.43,1,8,8,0,0,0-.14,1.59,4.88,4.88,0,0,0,.51,2.61,1.8,1.8,0,0,0,1.57.74,2.32,2.32,0,0,0,.94-.17,1.68,1.68,0,0,0,.69-.56,2.86,2.86,0,0,0,.43-1A7.18,7.18,0,0,0,110.53,54.58Z"/><path class="cls-1" d="M122.39,11.43A13.2,13.2,0,0,0,100.92,3a13.2,13.2,0,0,0-21.47,8.42,13.06,13.06,0,0,0,3.75,11l17.92,17.84,5-5-1.84-1.84-3.21,3.2L85,20.58a10.56,10.56,0,0,1,15-14.9l.92.91.92-.91a10.56,10.56,0,1,1,15,14.9l-7.91,7.88L100,19.56A4.63,4.63,0,0,1,106.52,13l.92.91.92-.91a4.67,4.67,0,0,1,3.89-1.32,4.55,4.55,0,0,1,1.15.31l1.93-1.92a7.17,7.17,0,0,0-2.75-1,7.27,7.27,0,0,0-5.14,1.28,7.25,7.25,0,0,0-11.38,4.94,7.16,7.16,0,0,0,2.07,6l10.76,10.73,9.75-9.71A13.06,13.06,0,0,0,122.39,11.43Z"/></g></g></svg>